<svg fill="none" height="55" viewBox="-0.0856 -8.2035 172.8587 39.1824" width="157" xmlns="http://www.w3.org/2000/svg">
  <path d="M 16.34 41.45 L 26.9 41.45 L 26.9 45.43 L 16.34 45.43 Z M 16.72 50.5 L 28.65 50.5 L 28.65 54.57 L 11.67 54.57 L 11.67 32.65 L 28.24 32.65 L 28.24 36.72 L 16.72 36.72 Z M 38.4 54.57 L 28.91 32.65 L 34.42 32.65 L 42.69 52.07 L 39.47 52.07 L 47.86 32.65 L 52.9 32.65 L 43.41 54.57 Z M 59.52 41.45 L 70.08 41.45 L 70.08 45.43 L 59.52 45.43 Z M 59.9 50.5 L 71.83 50.5 L 71.83 54.57 L 54.85 54.57 L 54.85 32.65 L 71.42 32.65 L 71.42 36.72 L 59.9 36.72 Z M 75 54.57 L 75 32.65 L 79.2 32.65 L 92.14 48.43 L 90.1 48.43 L 90.1 32.65 L 95.11 32.65 L 95.11 54.57 L 90.91 54.57 L 77.98 38.79 L 80.02 38.79 L 80.02 54.57 Z M 105.45 54.57 L 105.45 36.78 L 98.44 36.78 L 98.44 32.65 L 117.54 32.65 L 117.54 36.78 L 110.53 36.78 L 110.53 54.57 Z M 124.29 41.45 L 134.84 41.45 L 134.84 45.43 L 124.29 45.43 Z M 124.67 50.5 L 136.6 50.5 L 136.6 54.57 L 119.62 54.57 L 119.62 32.65 L 136.19 32.65 L 136.19 36.72 L 124.67 36.72 Z M 151.8 54.95 Q 149.2 54.95 147.01 54.12 Q 144.81 53.29 143.22 51.75 Q 141.62 50.22 140.73 48.15 Q 139.83 46.08 139.83 43.61 Q 139.83 41.14 140.73 39.07 Q 141.62 37 143.25 35.47 Q 144.88 33.93 147.07 33.1 Q 149.26 32.27 151.89 32.27 Q 154.81 32.27 157.14 33.24 Q 159.47 34.21 161.07 36.06 L 157.84 39.07 Q 156.62 37.78 155.21 37.17 Q 153.8 36.56 152.11 36.56 Q 150.55 36.56 149.23 37.08 Q 147.92 37.6 146.96 38.54 Q 146 39.48 145.49 40.76 Q 144.97 42.04 144.97 43.61 Q 144.97 45.11 145.49 46.41 Q 146 47.71 146.96 48.65 Q 147.92 49.59 149.21 50.12 Q 150.51 50.66 152.08 50.66 Q 153.58 50.66 155.01 50.16 Q 156.43 49.65 157.78 48.5 L 160.66 52.16 Q 158.85 53.54 156.5 54.24 Q 154.15 54.95 151.8 54.95 Z M 156.03 51.5 L 156.03 43.27 L 160.66 43.27 L 160.66 52.16 Z M 165.68 54.57 L 165.68 32.65 L 175.17 32.65 Q 178.11 32.65 180.24 33.6 Q 182.37 34.56 183.53 36.34 Q 184.69 38.13 184.69 40.57 Q 184.69 43.05 183.53 44.82 Q 182.37 46.59 180.24 47.51 Q 178.11 48.43 175.17 48.43 L 168.47 48.43 L 170.79 46.24 L 170.79 54.57 Z M 179.65 54.57 L 174.14 46.62 L 179.59 46.62 L 185.1 54.57 Z M 170.79 46.8 L 168.47 44.39 L 174.89 44.39 Q 177.21 44.39 178.4 43.39 Q 179.59 42.39 179.59 40.57 Q 179.59 38.76 178.4 37.77 Q 177.21 36.78 174.89 36.78 L 168.47 36.78 L 170.79 34.37 Z M 199.34 54.95 Q 196.75 54.95 194.56 54.1 Q 192.37 53.26 190.75 51.72 Q 189.12 50.19 188.22 48.12 Q 187.33 46.05 187.33 43.6 Q 187.33 41.14 188.23 39.09 Q 189.12 37.04 190.74 35.5 Q 192.36 33.95 194.54 33.11 Q 196.73 32.27 199.31 32.27 Q 201.93 32.27 204.11 33.11 Q 206.29 33.94 207.91 35.48 Q 209.53 37.01 210.43 39.07 Q 211.32 41.13 211.32 43.6 Q 211.32 46.06 210.43 48.14 Q 209.54 50.22 207.92 51.75 Q 206.29 53.28 204.11 54.11 Q 201.93 54.95 199.34 54.95 Z M 199.32 50.66 Q 200.8 50.66 202.04 50.14 Q 203.28 49.62 204.22 48.66 Q 205.15 47.71 205.67 46.44 Q 206.19 45.17 206.19 43.61 Q 206.19 42.04 205.67 40.77 Q 205.16 39.5 204.22 38.55 Q 203.28 37.6 202.04 37.08 Q 200.79 36.56 199.32 36.56 Q 197.86 36.56 196.6 37.08 Q 195.34 37.6 194.42 38.55 Q 193.49 39.49 192.98 40.77 Q 192.47 42.04 192.47 43.61 Q 192.47 45.18 192.98 46.45 Q 193.5 47.73 194.42 48.68 Q 195.35 49.62 196.6 50.14 Q 197.84 50.66 199.32 50.66 Z" transform="matrix(0.847657, 0, 0, 1.021707, -7.778118, -32.940693)" style="fill: rgb(255, 255, 255);"/>

</svg>


